<svg xmlns="http://www.w3.org/2000/svg" viewBox="0 0 640 640" role="img" aria-label="Demo routine set product image">
  <defs>
    <linearGradient id="bg" x1="80" x2="560" y1="72" y2="600" gradientUnits="userSpaceOnUse">
      <stop stop-color="#f7f7f8"/>
      <stop offset="1" stop-color="#e8e8ea"/>
    </linearGradient>
    <linearGradient id="bottle" x1="238" x2="378" y1="132" y2="520" gradientUnits="userSpaceOnUse">
      <stop stop-color="#ffffff"/>
      <stop offset="1" stop-color="#d9d9dc"/>
    </linearGradient>
    <linearGradient id="label" x1="248" x2="372" y1="306" y2="408" gradientUnits="userSpaceOnUse">
      <stop stop-color="#202123"/>
      <stop offset="1" stop-color="#0d0d0d"/>
    </linearGradient>
  </defs>
  <rect width="640" height="640" fill="url(#bg)" rx="80"/>
  <ellipse cx="320" cy="532" fill="#000" opacity=".09" rx="174" ry="28"/>
  <rect x="250" y="116" width="116" height="70" fill="#f5f5f5" stroke="#c9c9ce" stroke-width="8" rx="22"/>
  <rect x="224" y="170" width="168" height="350" fill="url(#bottle)" stroke="#c2c2c7" stroke-width="8" rx="52"/>
  <rect x="244" y="294" width="128" height="122" fill="url(#label)" rx="24"/>
  <circle cx="308" cy="356" r="25" fill="#19c37d"/>
  <path fill="#fff" d="M303 369c-16-17-10-42 12-50 15 16 10 41-12 50Z" opacity=".95"/>
  <rect x="166" y="336" width="132" height="178" fill="#fff" stroke="#c9c9ce" stroke-width="8" rx="28"/>
  <rect x="186" y="374" width="92" height="48" fill="#202123" rx="16"/>
  <circle cx="232" cy="464" r="22" fill="#19c37d"/>
  <rect x="346" y="352" width="132" height="162" fill="#fff" stroke="#c9c9ce" stroke-width="8" rx="28"/>
  <rect x="366" y="386" width="92" height="42" fill="#202123" rx="15"/>
  <circle cx="412" cy="468" r="18" fill="#19c37d"/>
</svg>
